<mxfile host="app.diagrams.net" modified="2024-05-16T10:41:48.497Z" agent="Mozilla/5.0 (Windows NT 10.0; Win64; x64) AppleWebKit/537.36 (KHTML, like Gecko) Chrome/124.0.0.0 Safari/537.36" etag="vZ8eErg9J-4Cu5OWuh0Y" version="24.3.1" type="google">
  <diagram name="Page-1" id="OTF7vFNNDO52OXOnAP9M">
    <mxGraphModel grid="1" page="1" gridSize="10" guides="1" tooltips="1" connect="1" arrows="1" fold="1" pageScale="1" pageWidth="827" pageHeight="1169" math="0" shadow="0">
      <root>
        <mxCell id="0" />
        <mxCell id="1" parent="0" />
        <mxCell id="fPU8xlzAj8uSoztvO3_i-1" value="" style="rounded=0;whiteSpace=wrap;html=1;" vertex="1" parent="1">
          <mxGeometry x="200" y="210" width="360" height="360" as="geometry" />
        </mxCell>
        <mxCell id="fPU8xlzAj8uSoztvO3_i-2" value="Hostess" style="shape=umlActor;verticalLabelPosition=bottom;verticalAlign=top;html=1;outlineConnect=0;" vertex="1" parent="1">
          <mxGeometry x="140" y="340" width="30" height="60" as="geometry" />
        </mxCell>
        <mxCell id="fPU8xlzAj8uSoztvO3_i-3" value="Customer" style="shape=umlActor;verticalLabelPosition=bottom;verticalAlign=top;html=1;outlineConnect=0;" vertex="1" parent="1">
          <mxGeometry x="610" y="345" width="30" height="60" as="geometry" />
        </mxCell>
        <mxCell id="fPU8xlzAj8uSoztvO3_i-4" value="Server" style="shape=umlActor;verticalLabelPosition=bottom;verticalAlign=top;html=1;outlineConnect=0;" vertex="1" parent="1">
          <mxGeometry x="140" y="480" width="30" height="60" as="geometry" />
        </mxCell>
        <mxCell id="fPU8xlzAj8uSoztvO3_i-5" value="Hostess greets customer" style="ellipse;whiteSpace=wrap;html=1;" vertex="1" parent="1">
          <mxGeometry x="248.75" y="260" width="90" height="50" as="geometry" />
        </mxCell>
        <mxCell id="fPU8xlzAj8uSoztvO3_i-6" value="checks for reservation &amp;amp; then seats customer" style="ellipse;whiteSpace=wrap;html=1;" vertex="1" parent="1">
          <mxGeometry x="248.75" y="330" width="100" height="50" as="geometry" />
        </mxCell>
        <mxCell id="fPU8xlzAj8uSoztvO3_i-8" value="enters Dining Room" style="ellipse;whiteSpace=wrap;html=1;" vertex="1" parent="1">
          <mxGeometry x="440" y="345" width="90" height="50" as="geometry" />
        </mxCell>
        <mxCell id="fPU8xlzAj8uSoztvO3_i-9" value="provides customer with a table, a menu and a wine list" style="ellipse;whiteSpace=wrap;html=1;" vertex="1" parent="1">
          <mxGeometry x="230" y="400" width="137.5" height="60" as="geometry" />
        </mxCell>
        <mxCell id="fPU8xlzAj8uSoztvO3_i-10" value="will be assigned to a table" style="ellipse;whiteSpace=wrap;html=1;" vertex="1" parent="1">
          <mxGeometry x="315" y="480" width="90" height="50" as="geometry" />
        </mxCell>
        <mxCell id="fPU8xlzAj8uSoztvO3_i-11" value="" style="endArrow=none;html=1;rounded=0;entryX=0;entryY=0.5;entryDx=0;entryDy=0;" edge="1" parent="1" target="fPU8xlzAj8uSoztvO3_i-5">
          <mxGeometry width="50" height="50" relative="1" as="geometry">
            <mxPoint x="170" y="370" as="sourcePoint" />
            <mxPoint x="220" y="320" as="targetPoint" />
          </mxGeometry>
        </mxCell>
        <mxCell id="fPU8xlzAj8uSoztvO3_i-12" value="" style="endArrow=none;html=1;rounded=0;entryX=0;entryY=0.5;entryDx=0;entryDy=0;" edge="1" parent="1" target="fPU8xlzAj8uSoztvO3_i-6">
          <mxGeometry width="50" height="50" relative="1" as="geometry">
            <mxPoint x="170" y="370" as="sourcePoint" />
            <mxPoint x="180" y="220" as="targetPoint" />
          </mxGeometry>
        </mxCell>
        <mxCell id="fPU8xlzAj8uSoztvO3_i-13" value="" style="endArrow=none;html=1;rounded=0;entryX=0;entryY=0.5;entryDx=0;entryDy=0;" edge="1" parent="1" target="fPU8xlzAj8uSoztvO3_i-9">
          <mxGeometry width="50" height="50" relative="1" as="geometry">
            <mxPoint x="170" y="370" as="sourcePoint" />
            <mxPoint x="155" y="450" as="targetPoint" />
          </mxGeometry>
        </mxCell>
        <mxCell id="fPU8xlzAj8uSoztvO3_i-14" value="" style="endArrow=none;html=1;rounded=0;" edge="1" parent="1" target="fPU8xlzAj8uSoztvO3_i-10">
          <mxGeometry width="50" height="50" relative="1" as="geometry">
            <mxPoint x="160" y="510" as="sourcePoint" />
            <mxPoint x="200" y="570" as="targetPoint" />
          </mxGeometry>
        </mxCell>
        <mxCell id="fPU8xlzAj8uSoztvO3_i-16" value="" style="endArrow=none;html=1;rounded=0;exitX=1;exitY=0.5;exitDx=0;exitDy=0;" edge="1" parent="1" source="fPU8xlzAj8uSoztvO3_i-8">
          <mxGeometry width="50" height="50" relative="1" as="geometry">
            <mxPoint x="455" y="377" as="sourcePoint" />
            <mxPoint x="610" y="373" as="targetPoint" />
          </mxGeometry>
        </mxCell>
        <mxCell id="MiBDm0JLVwCRdqqhH32K-1" value="Dining Room" style="text;html=1;align=center;verticalAlign=middle;whiteSpace=wrap;rounded=0;" vertex="1" parent="1">
          <mxGeometry x="330" y="210" width="90" height="30" as="geometry" />
        </mxCell>
      </root>
    </mxGraphModel>
  </diagram>
</mxfile>
